<?xml version="1.0" encoding="utf-8"?>
<!-- Generator: Adobe Illustrator 27.5.0, SVG Export Plug-In . SVG Version: 6.00 Build 0)  -->
<svg version="1.1" xmlns="http://www.w3.org/2000/svg" xmlns:xlink="http://www.w3.org/1999/xlink" x="0px" y="0px"
	 viewBox="0 0 750 500" style="enable-background:new 0 0 750 500;" xml:space="preserve">
<g id="BACKGROUND">
	<rect style="fill:#E9FFAD;" width="750" height="500"/>
</g>
<g id="OBJECTS">
	<g>
		<defs>
			<rect id="SVGID_1_" width="750" height="500"/>
		</defs>
		<clipPath id="SVGID_00000115492859059732326100000015592969447223752865_">
			<use xlink:href="#SVGID_1_"  style="overflow:visible;"/>
		</clipPath>
		
			<circle style="clip-path:url(#SVGID_00000115492859059732326100000015592969447223752865_);fill:#FFFFFF;" cx="220.355" cy="381.073" r="106.669"/>
		
			<ellipse transform="matrix(0.1602 -0.9871 0.9871 0.1602 135.7726 898.2986)" style="clip-path:url(#SVGID_00000115492859059732326100000015592969447223752865_);fill:#FFFFFF;" cx="595.798" cy="369.359" rx="61.848" ry="61.848"/>
		
			<ellipse transform="matrix(0.7071 -0.7071 0.7071 0.7071 96.5329 447.9419)" style="clip-path:url(#SVGID_00000115492859059732326100000015592969447223752865_);fill:#FFFFFF;" cx="588.98" cy="107.445" rx="38.019" ry="38.019"/>
		<path style="clip-path:url(#SVGID_00000115492859059732326100000015592969447223752865_);fill:#FFFFFF;" d="M-0.381,224.162
			L-0.381,224.162l0-224.062H223.68v0C223.68,123.846,123.365,224.162-0.381,224.162z"/>
		<path style="clip-path:url(#SVGID_00000115492859059732326100000015592969447223752865_);fill:#8FD9A8;" d="M692.247,412.274
			c-20.81-20.81-48.38-34.91-79.12-38.71v87.62c20.31,6.73,34.94,25.28,34.94,47.06s-14.63,40.33-34.94,47.07v87.61
			c67.01-8.29,118.87-65.43,118.87-134.68C731.997,470.774,716.817,436.844,692.247,412.274z"/>
		<path style="clip-path:url(#SVGID_00000115492859059732326100000015592969447223752865_);fill:#8FD9A8;" d="M460.567,508.244
			c0,37.47,15.2,71.41,39.75,95.97c20.82,20.82,48.38,34.91,79.12,38.71v-87.62c-20.3-6.73-34.92-25.29-34.92-47.06
			c0-21.77,14.62-40.32,34.92-47.05v-87.63c-30.74,3.8-58.3,17.9-79.12,38.71C475.767,436.844,460.567,470.774,460.567,508.244z"/>
		<path style="clip-path:url(#SVGID_00000115492859059732326100000015592969447223752865_);fill:#8FD9A8;" d="M-0.635,368.206
			c37.47,0,71.41-15.2,95.97-39.75c20.82-20.82,34.91-48.38,38.71-79.12h-87.62c-6.73,20.3-25.29,34.92-47.06,34.92
			s-40.32-14.62-47.05-34.92h-87.63c3.8,30.74,17.9,58.3,38.71,79.12C-72.035,353.006-38.105,368.206-0.635,368.206z"/>
		
			<ellipse style="clip-path:url(#SVGID_00000115492859059732326100000015592969447223752865_);fill:#8FD9A8;" cx="484.647" cy="0.542" rx="109.22" ry="105.248"/>
		<path style="clip-path:url(#SVGID_00000115492859059732326100000015592969447223752865_);fill:#8FD9A8;" d="M749.643,157.544
			c-36.309,0-65.858,29.535-65.858,65.845s29.548,65.858,65.858,65.858c36.309,0,65.845-29.548,65.845-65.858
			S785.952,157.544,749.643,157.544z M749.64,252.634c-16.159,0-29.253-13.094-29.253-29.246c0-16.152,13.094-29.246,29.253-29.246
			c16.152,0,29.246,13.094,29.246,29.246C778.886,239.54,765.792,252.634,749.64,252.634z"/>
		
			<circle style="clip-path:url(#SVGID_00000115492859059732326100000015592969447223752865_);fill:#8FD9A8;" cx="67.69" cy="67.006" r="15.672"/>
		
			<line style="clip-path:url(#SVGID_00000115492859059732326100000015592969447223752865_);fill:none;stroke:#4B778D;stroke-width:7;stroke-miterlimit:10;" x1="22.63" y1="432.283" x2="22.63" y2="500.896"/>
		
			<rect x="159.98" y="-16.398" style="clip-path:url(#SVGID_00000115492859059732326100000015592969447223752865_);fill:#4B778D;" width="65.816" height="23.821"/>
		
			<rect x="210.997" y="409.459" style="clip-path:url(#SVGID_00000115492859059732326100000015592969447223752865_);fill:#E9FFAD;" width="18.715" height="142.488"/>
		
			<rect x="210.997" y="149.315" style="clip-path:url(#SVGID_00000115492859059732326100000015592969447223752865_);fill:#E9FFAD;" width="18.715" height="215.126"/>
		
			<ellipse transform="matrix(0.9873 -0.159 0.159 0.9873 -74.7542 65.478)" style="clip-path:url(#SVGID_00000115492859059732326100000015592969447223752865_);fill:#28B5B5;" cx="371.775" cy="499.855" rx="23.559" ry="23.559"/>
		<g style="clip-path:url(#SVGID_00000115492859059732326100000015592969447223752865_);">
			<path style="fill:#4B778D;" d="M76.453,27.531v8.21c13.44,3.93,23.26,16.35,23.26,31.06c0,14.71-9.82,27.13-23.26,31.06v8.22
				c17.86-4.14,31.21-20.18,31.21-39.28C107.663,47.7,94.313,31.67,76.453,27.531z M27.043,66.8c0,19.1,13.35,35.14,31.21,39.28
				v-8.22c-13.45-3.93-23.27-16.35-23.27-31.06c0-14.71,9.82-27.13,23.27-31.06v-8.21C40.393,31.67,27.043,47.7,27.043,66.8z"/>
		</g>
		
			<ellipse transform="matrix(0.1602 -0.9871 0.9871 0.1602 119.2321 818.6854)" style="clip-path:url(#SVGID_00000115492859059732326100000015592969447223752865_);fill:#28B5B5;" cx="540.741" cy="339.272" rx="8.196" ry="8.196"/>
		
			<path style="clip-path:url(#SVGID_00000115492859059732326100000015592969447223752865_);fill:none;stroke:#3D3D3D;stroke-miterlimit:10;" d="
			M165.194,368.677h-47.799V368.6H92.922v72.256h24.474v0c0-26.347,21.358-47.705,47.705-47.705h0.094V368.677z"/>
		<path style="clip-path:url(#SVGID_00000115492859059732326100000015592969447223752865_);fill:#28B5B5;" d="M590.985,180.549
			h47.799v0.077h24.474V108.37h-24.474l0,0c0,26.347-21.358,47.705-47.705,47.705h-0.094V180.549z"/>
		
			<polygon style="clip-path:url(#SVGID_00000115492859059732326100000015592969447223752865_);fill:none;stroke:#3D3D3D;stroke-miterlimit:10;" points="
			679.216,-32.645 679.216,35.944 679.106,35.944 679.106,71.063 782.79,71.063 782.79,35.944 714.335,35.944 714.335,-32.645 		"/>
		
			<line style="clip-path:url(#SVGID_00000115492859059732326100000015592969447223752865_);fill:none;stroke:#4B778D;stroke-width:7;stroke-miterlimit:10;" x1="-50.968" y1="179.981" x2="24.982" y2="179.981"/>
		<g style="clip-path:url(#SVGID_00000115492859059732326100000015592969447223752865_);">
			<path style="fill:#4B778D;" d="M477.973,177.555v7h34.68v130.89h-34.68v7h41.68v-144.89H477.973z M230.353,322.445h41.67v-7
				h-34.67v-130.89h34.67v-7h-41.67V322.445z"/>
		</g>
		
			<circle style="clip-path:url(#SVGID_00000115492859059732326100000015592969447223752865_);fill:#28B5B5;" cx="213.351" cy="74.382" r="9.449"/>
		
			<line style="clip-path:url(#SVGID_00000115492859059732326100000015592969447223752865_);fill:none;stroke:#4B778D;stroke-width:7;stroke-miterlimit:10;" x1="637.618" y1="22.55" x2="663.258" y2="22.55"/>
		
			<line style="clip-path:url(#SVGID_00000115492859059732326100000015592969447223752865_);fill:none;stroke:#4B778D;stroke-width:7;stroke-miterlimit:10;" x1="92.521" y1="457.425" x2="118.161" y2="457.425"/>
		
			<line style="clip-path:url(#SVGID_00000115492859059732326100000015592969447223752865_);fill:none;stroke:#FFFFFF;stroke-width:7;stroke-miterlimit:10;" x1="590.993" y1="196.986" x2="663.552" y2="196.986"/>
		
			<line style="clip-path:url(#SVGID_00000115492859059732326100000015592969447223752865_);fill:none;stroke:#FFFFFF;stroke-width:7;stroke-miterlimit:10;" x1="590.993" y1="217.759" x2="663.552" y2="217.759"/>
		
			<line style="clip-path:url(#SVGID_00000115492859059732326100000015592969447223752865_);fill:none;stroke:#FFFFFF;stroke-width:7;stroke-miterlimit:10;" x1="590.993" y1="238.237" x2="663.552" y2="238.237"/>
		
			<rect x="336.435" y="-8.709" style="clip-path:url(#SVGID_00000115492859059732326100000015592969447223752865_);fill:none;stroke:#3D3D3D;stroke-miterlimit:10;" width="139.724" height="39.487"/>
		
			<rect x="-5.786" y="312.087" style="clip-path:url(#SVGID_00000115492859059732326100000015592969447223752865_);fill:none;stroke:#3D3D3D;stroke-miterlimit:10;" width="28.887" height="35.436"/>
		
			<rect x="686.214" y="434.312" style="clip-path:url(#SVGID_00000115492859059732326100000015592969447223752865_);fill:none;stroke:#3D3D3D;stroke-miterlimit:10;" width="98.212" height="98.211"/>
		<g style="clip-path:url(#SVGID_00000115492859059732326100000015592969447223752865_);">
			<rect x="490.201" y="26.027" style="fill:#4B778D;" width="5.58" height="5.58"/>
			<rect x="502.654" y="26.027" style="fill:#4B778D;" width="5.58" height="5.58"/>
			<rect x="515.108" y="26.027" style="fill:#4B778D;" width="5.58" height="5.58"/>
		</g>
		<g style="clip-path:url(#SVGID_00000115492859059732326100000015592969447223752865_);">
			<path style="fill:#4B778D;" d="M751.383,312.268c-19.1,0-35.14,13.35-39.28,31.21h8.22c3.93-13.45,16.35-23.27,31.06-23.27
				c14.71,0,27.13,9.82,31.06,23.27h8.21C786.513,325.618,770.483,312.268,751.383,312.268z"/>
			<g>
				
					<rect x="711.536" y="356.706" transform="matrix(-1.836970e-16 1 -1 -1.836970e-16 1076.7877 -354.83)" style="fill:#4B778D;" width="8.546" height="8.546"/>
				
					<rect x="711.536" y="375.779" transform="matrix(-1.836970e-16 1 -1 -1.836970e-16 1095.861 -335.7567)" style="fill:#4B778D;" width="8.546" height="8.546"/>
				
					<rect x="711.536" y="394.852" transform="matrix(-1.836970e-16 1 -1 -1.836970e-16 1114.9342 -316.6833)" style="fill:#4B778D;" width="8.546" height="8.546"/>
			</g>
		</g>
		<g style="clip-path:url(#SVGID_00000115492859059732326100000015592969447223752865_);">
			
				<rect x="18.918" y="385.328" transform="matrix(-1.836970e-16 1 -1 -1.836970e-16 411.0976 366.4099)" style="fill:#4B778D;" width="6.852" height="6.852"/>
			
				<rect x="18.918" y="400.62" transform="matrix(-1.836970e-16 1 -1 -1.836970e-16 426.3898 381.7022)" style="fill:#4B778D;" width="6.852" height="6.852"/>
			
				<rect x="18.918" y="415.912" transform="matrix(-1.836970e-16 1 -1 -1.836970e-16 441.682 396.9944)" style="fill:#4B778D;" width="6.852" height="6.852"/>
		</g>
	</g>
</g>
</svg>
